<?xml version="1.0" encoding="UTF-8"?>
<svg width="238px" height="80px" viewBox="0 0 238 80" version="1.1" xmlns="http://www.w3.org/2000/svg" xmlns:xlink="http://www.w3.org/1999/xlink">
    <title>Лови</title>
    <g id="Page-1" stroke="none" stroke-width="1" fill="none" fill-rule="evenodd">
        <g id="Лови" transform="translate(0.2962, -35)" fill="#F7F7F7" fill-rule="nonzero">
            <path d="M0.433777778,113 C0.108444444,113 -0.0338888889,112.756 0.00677777778,112.268 C0.0474444444,111.78 0.230444444,111.536 0.555777778,111.536 C2.58911111,111.536 4.39877778,111.068333 5.98477778,110.133 C7.57077778,109.197667 9.25844444,107.530333 11.0477778,105.131 C12.8371111,102.731667 14.9924444,99.336 17.5137778,94.944 L51.5517778,35.774 C51.6331111,35.6113333 51.8974444,35.591 52.3447778,35.713 C52.7921111,35.835 53.0564444,36.018 53.1377778,36.262 L69.4857778,96.53 C70.4617778,100.434 71.4174444,103.484 72.3527778,105.68 C73.2881111,107.876 74.2844444,109.401 75.3417778,110.255 C76.3991111,111.109 77.5377778,111.536 78.7577778,111.536 C79.1644444,111.536 79.3067778,111.78 79.1847778,112.268 C79.0627778,112.756 78.8797778,113 78.6357778,113 C76.4397778,113 74.2031111,112.918667 71.9257778,112.756 C69.6484444,112.593333 67.4117778,112.512 65.2157778,112.512 C62.7757778,112.512 60.6814444,112.593333 58.9327778,112.756 C57.1841111,112.918667 55.2117778,113 53.0157778,113 C52.6904444,113 52.5481111,112.756 52.5887778,112.268 C52.6294444,111.78 52.7717778,111.536 53.0157778,111.536 C56.4317778,111.536 58.5871111,110.824333 59.4817778,109.401 C60.3764444,107.977667 60.3357778,105.395333 59.3597778,101.654 L45.3297778,50.048 L51.4297778,41.874 L20.1977778,96.652 C17.4324444,101.450667 16.7004444,105.131 18.0017778,107.693 C19.3031111,110.255 22.0684444,111.536 26.2977778,111.536 C26.6231111,111.536 26.7654444,111.78 26.7247778,112.268 C26.6841111,112.756 26.5011111,113 26.1757778,113 C23.9797778,113 21.9871111,112.918667 20.1977778,112.756 C18.4084444,112.593333 16.0904444,112.512 13.2437778,112.512 C10.4784444,112.512 8.26211111,112.593333 6.59477778,112.756 C4.92744444,112.918667 2.87377778,113 0.433777778,113 Z" id="Path"></path>
            <path d="M100.473778,114.708 C96.1631111,114.708 92.7064444,113.549 90.1037778,111.231 C87.5011111,108.913 85.7727778,105.842667 84.9187778,102.02 C84.0647778,98.1973333 84.0851111,94.0086667 84.9797778,89.454 C85.8744444,84.574 87.6231111,80.243 90.2257778,76.461 C92.8284444,72.679 95.9597778,69.7103333 99.6197778,67.555 C103.279778,65.3996667 107.224444,64.322 111.453778,64.322 C115.927111,64.322 119.485444,65.4606667 122.128778,67.738 C124.772111,70.0153333 126.520778,73.045 127.374778,76.827 C128.228778,80.609 128.167778,84.818 127.191778,89.454 C126.215778,94.822 124.304444,99.4173333 121.457778,103.24 C118.611111,107.062667 115.337444,109.929667 111.636778,111.841 C107.936111,113.752333 104.215111,114.708 100.473778,114.708 Z M104.621778,111.658 C107.468444,111.658 110.010111,110.153333 112.246778,107.144 C114.483444,104.134667 116.049111,100.027333 116.943778,94.822 C117.594444,91.406 117.879111,88.0713333 117.797778,84.818 C117.716444,81.5646667 117.269111,78.596 116.455778,75.912 C115.642444,73.228 114.483444,71.1133333 112.978778,69.568 C111.474111,68.0226667 109.664444,67.25 107.549778,67.25 C104.865778,67.25 102.405444,68.6733333 100.168778,71.52 C97.9321111,74.3666667 96.2851111,78.596 95.2277778,84.208 C94.5771111,87.7053333 94.3127778,91.101 94.4347778,94.395 C94.5567778,97.689 95.0244444,100.617 95.8377778,103.179 C96.6511111,105.741 97.8101111,107.794667 99.3147778,109.34 C100.819444,110.885333 102.588444,111.658 104.621778,111.658 Z" id="Shape"></path>
            <path d="M153.421778,114.708 C148.053778,114.708 143.865111,113.508333 140.855778,111.109 C137.846444,108.709667 135.914778,105.619 135.060778,101.837 C134.206778,98.055 134.186444,94.1306667 134.999778,90.064 C135.894444,85.672 137.622778,81.524 140.184778,77.62 C142.746778,73.716 146.061111,70.5236667 150.127778,68.043 C154.194444,65.5623333 158.871111,64.322 164.157778,64.322 C168.875111,64.322 172.352111,65.3183333 174.588778,67.311 C176.825444,69.3036667 177.699778,71.6013333 177.211778,74.204 C176.723778,76.888 174.914111,79.4906667 171.782778,82.012 C168.651444,84.5333333 164.523778,86.3633333 159.399778,87.502 L161.229778,86.16 C166.191111,86.16 170.034111,87.38 172.758778,89.82 C175.483444,92.26 176.520444,95.3913333 175.869778,99.214 C175.463111,101.491333 174.344778,103.829667 172.514778,106.229 C170.684778,108.628333 168.183778,110.641333 165.011778,112.268 C161.839778,113.894667 157.976444,114.708 153.421778,114.708 Z M156.349778,112.512 C159.440444,112.512 161.778778,111.536 163.364778,109.584 C164.950778,107.632 165.947111,105.354667 166.353778,102.752 C166.760444,100.068 166.597778,97.7703333 165.865778,95.859 C165.133778,93.9476667 163.913778,92.4836667 162.205778,91.467 C160.497778,90.4503333 158.301778,89.942 155.617778,89.942 C154.804444,89.942 153.991111,89.9826667 153.177778,90.064 C152.364444,90.1453333 151.429111,90.2673333 150.371778,90.43 C149.802444,90.5113333 149.456778,90.247 149.334778,89.637 C149.212778,89.027 149.436444,88.6813333 150.005778,88.6 C153.909778,87.624 157.041111,86.6073333 159.399778,85.55 C161.758444,84.4926667 163.568111,83.171 164.828778,81.585 C166.089444,79.999 166.882444,77.986 167.207778,75.546 C167.614444,72.13 167.146778,69.751 165.804778,68.409 C164.462778,67.067 162.775111,66.396 160.741778,66.396 C158.057778,66.396 155.638111,67.311 153.482778,69.141 C151.327444,70.971 149.517778,73.4313333 148.053778,76.522 C146.589778,79.6126667 145.532444,82.988 144.881778,86.648 C144.068444,90.9586667 143.946444,95.0863333 144.515778,99.031 C145.085111,102.975667 146.345778,106.208667 148.297778,108.73 C150.249778,111.251333 152.933778,112.512 156.349778,112.512 Z" id="Shape"></path>
            <path d="M197.951778,114.586 C194.454444,114.586 192.034778,113.284667 190.692778,110.682 C189.350778,108.079333 189.249111,104.012667 190.387778,98.482 L194.657778,76.766 C195.064444,74.326 195.084778,72.679 194.718778,71.825 C194.352778,70.971 193.763111,70.544 192.949778,70.544 C192.055111,70.544 191.038444,70.9913333 189.899778,71.886 C188.761111,72.7806667 187.459778,73.9193333 185.995778,75.302 C185.670444,75.6273333 185.345111,75.6273333 185.019778,75.302 C184.694444,74.9766667 184.694444,74.6513333 185.019778,74.326 C187.622444,71.2353333 190.001444,68.8766667 192.156778,67.25 C194.312111,65.6233333 196.528444,64.81 198.805778,64.81 C201.083111,64.81 202.669111,65.725 203.563778,67.555 C204.458444,69.385 204.417778,72.4553333 203.441778,76.766 L199.659778,96.164 C198.765111,100.312 198.663444,103.382333 199.354778,105.375 C200.046111,107.367667 201.367778,108.364 203.319778,108.364 C205.759778,108.364 208.301444,106.778 210.944778,103.606 C213.588111,100.434 216.068778,95.7776667 218.386778,89.637 C220.704778,83.4963333 222.636444,75.9933333 224.181778,67.128 L226.133778,67.25 C224.507111,76.8473333 222.270444,85.2043333 219.423778,92.321 C216.577111,99.4376667 213.323778,104.927667 209.663778,108.791 C206.003778,112.654333 202.099778,114.586 197.951778,114.586 Z M222.473778,114.098 C220.115111,114.098 218.590111,113.203333 217.898778,111.414 C217.207444,109.624667 217.187111,106.9 217.837778,103.24 L224.181778,67.128 C224.507111,65.664 226.418444,64.932 229.915778,64.932 C231.379778,64.932 232.355778,65.0336667 232.843778,65.237 C233.331778,65.4403333 233.575778,65.6233333 233.575778,65.786 C233.575778,66.1113333 233.372444,67.189 232.965778,69.019 C232.559111,70.849 232.152444,72.8213333 231.745778,74.936 L226.743778,102.142 C226.011778,106.371333 226.662444,108.486 228.695778,108.486 C229.509111,108.486 230.566444,108.059 231.867778,107.205 C233.169111,106.351 234.592444,105.07 236.137778,103.362 C236.381778,103.036667 236.686778,103.057 237.052778,103.423 C237.418778,103.789 237.439111,104.134667 237.113778,104.46 C234.267111,107.876 231.705111,110.336333 229.427778,111.841 C227.150444,113.345667 224.832444,114.098 222.473778,114.098 Z" id="Shape"></path>
        </g>
    </g>
</svg>