<?xml version="1.0" encoding="UTF-8"?>
<svg width="266px" height="89px" viewBox="0 0 266 89" version="1.1" xmlns="http://www.w3.org/2000/svg" xmlns:xlink="http://www.w3.org/1999/xlink">
    <title>Лови</title>
    <g id="Page-1" stroke="none" stroke-width="1" fill="none" fill-rule="evenodd">
        <g id="Лови" transform="translate(0.7564, -39)" fill="#FFFFFF" fill-rule="nonzero">
            <path d="M0.483555556,126 C0.120888889,126 -0.0377777778,125.728 0.00755555556,125.184 C0.0528888889,124.64 0.256888889,124.368 0.619555556,124.368 C2.88622222,124.368 4.90355556,123.846667 6.67155556,122.804 C8.43955556,121.761333 10.3208889,119.902667 12.3155556,117.228 C14.3102222,114.553333 16.7128889,110.768 19.5235556,105.872 L57.4675556,39.912 C57.5582222,39.7306667 57.8528889,39.708 58.3515556,39.844 C58.8502222,39.98 59.1448889,40.184 59.2355556,40.456 L77.4595556,107.64 C78.5475556,111.992 79.6128889,115.392 80.6555556,117.84 C81.6982222,120.288 82.8088889,121.988 83.9875556,122.94 C85.1662222,123.892 86.4355556,124.368 87.7955556,124.368 C88.2488889,124.368 88.4075556,124.64 88.2715556,125.184 C88.1355556,125.728 87.9315556,126 87.6595556,126 C85.2115556,126 82.7182222,125.909333 80.1795556,125.728 C77.6408889,125.546667 75.1475556,125.456 72.6995556,125.456 C69.9795556,125.456 67.6448889,125.546667 65.6955556,125.728 C63.7462222,125.909333 61.5475556,126 59.0995556,126 C58.7368889,126 58.5782222,125.728 58.6235556,125.184 C58.6688889,124.64 58.8275556,124.368 59.0995556,124.368 C62.9075556,124.368 65.3102222,123.574667 66.3075556,121.988 C67.3048889,120.401333 67.2595556,117.522667 66.1715556,113.352 L50.5315556,55.824 L57.3315556,46.712 L22.5155556,107.776 C19.4328889,113.125333 18.6168889,117.228 20.0675556,120.084 C21.5182222,122.94 24.6008889,124.368 29.3155556,124.368 C29.6782222,124.368 29.8368889,124.64 29.7915556,125.184 C29.7462222,125.728 29.5422222,126 29.1795556,126 C26.7315556,126 24.5102222,125.909333 22.5155556,125.728 C20.5208889,125.546667 17.9368889,125.456 14.7635556,125.456 C11.6808889,125.456 9.21022222,125.546667 7.35155556,125.728 C5.49288889,125.909333 3.20355556,126 0.483555556,126 Z" id="Path"></path>
            <path d="M112.003556,127.904 C107.198222,127.904 103.344889,126.612 100.443556,124.028 C97.5422222,121.444 95.6155556,118.021333 94.6635556,113.76 C93.7115556,109.498667 93.7342222,104.829333 94.7315556,99.752 C95.7288889,94.312 97.6782222,89.484 100.579556,85.268 C103.480889,81.052 106.971556,77.7426667 111.051556,75.34 C115.131556,72.9373333 119.528889,71.736 124.243556,71.736 C129.230222,71.736 133.196889,73.0053333 136.143556,75.544 C139.090222,78.0826667 141.039556,81.46 141.991556,85.676 C142.943556,89.892 142.875556,94.584 141.787556,99.752 C140.699556,105.736 138.568889,110.858667 135.395556,115.12 C132.222222,119.381333 128.572889,122.577333 124.447556,124.708 C120.322222,126.838667 116.174222,127.904 112.003556,127.904 Z M116.627556,124.504 C119.800889,124.504 122.634222,122.826667 125.127556,119.472 C127.620889,116.117333 129.366222,111.538667 130.363556,105.736 C131.088889,101.928 131.406222,98.2106667 131.315556,94.584 C131.224889,90.9573333 130.726222,87.648 129.819556,84.656 C128.912889,81.664 127.620889,79.3066667 125.943556,77.584 C124.266222,75.8613333 122.248889,75 119.891556,75 C116.899556,75 114.156889,76.5866667 111.663556,79.76 C109.170222,82.9333333 107.334222,87.648 106.155556,93.904 C105.430222,97.8026667 105.135556,101.588 105.271556,105.26 C105.407556,108.932 105.928889,112.196 106.835556,115.052 C107.742222,117.908 109.034222,120.197333 110.711556,121.92 C112.388889,123.642667 114.360889,124.504 116.627556,124.504 Z" id="Shape"></path>
            <path d="M171.027556,127.904 C165.043556,127.904 160.374222,126.566667 157.019556,123.892 C153.664889,121.217333 151.511556,117.772 150.559556,113.556 C149.607556,109.34 149.584889,104.965333 150.491556,100.432 C151.488889,95.536 153.415556,90.912 156.271556,86.56 C159.127556,82.208 162.822222,78.6493333 167.355556,75.884 C171.888889,73.1186667 177.102222,71.736 182.995556,71.736 C188.254222,71.736 192.130222,72.8466667 194.623556,75.068 C197.116889,77.2893333 198.091556,79.8506667 197.547556,82.752 C197.003556,85.744 194.986222,88.6453333 191.495556,91.456 C188.004889,94.2666667 183.403556,96.3066667 177.691556,97.576 L179.731556,96.08 C185.262222,96.08 189.546222,97.44 192.583556,100.16 C195.620889,102.88 196.776889,106.370667 196.051556,110.632 C195.598222,113.170667 194.351556,115.777333 192.311556,118.452 C190.271556,121.126667 187.483556,123.370667 183.947556,125.184 C180.411556,126.997333 176.104889,127.904 171.027556,127.904 Z M174.291556,125.456 C177.736889,125.456 180.343556,124.368 182.111556,122.192 C183.879556,120.016 184.990222,117.477333 185.443556,114.576 C185.896889,111.584 185.715556,109.022667 184.899556,106.892 C184.083556,104.761333 182.723556,103.129333 180.819556,101.996 C178.915556,100.862667 176.467556,100.296 173.475556,100.296 C172.568889,100.296 171.662222,100.341333 170.755556,100.432 C169.848889,100.522667 168.806222,100.658667 167.627556,100.84 C166.992889,100.930667 166.607556,100.636 166.471556,99.956 C166.335556,99.276 166.584889,98.8906667 167.219556,98.8 C171.571556,97.712 175.062222,96.5786667 177.691556,95.4 C180.320889,94.2213333 182.338222,92.748 183.743556,90.98 C185.148889,89.212 186.032889,86.968 186.395556,84.248 C186.848889,80.44 186.327556,77.788 184.831556,76.292 C183.335556,74.796 181.454222,74.048 179.187556,74.048 C176.195556,74.048 173.498222,75.068 171.095556,77.108 C168.692889,79.148 166.675556,81.8906667 165.043556,85.336 C163.411556,88.7813333 162.232889,92.544 161.507556,96.624 C160.600889,101.429333 160.464889,106.030667 161.099556,110.428 C161.734222,114.825333 163.139556,118.429333 165.315556,121.24 C167.491556,124.050667 170.483556,125.456 174.291556,125.456 Z" id="Shape"></path>
            <path d="M220.667556,127.768 C216.768889,127.768 214.071556,126.317333 212.575556,123.416 C211.079556,120.514667 210.966222,115.981333 212.235556,109.816 L216.995556,85.608 C217.448889,82.888 217.471556,81.052 217.063556,80.1 C216.655556,79.148 215.998222,78.672 215.091556,78.672 C214.094222,78.672 212.960889,79.1706667 211.691556,80.168 C210.422222,81.1653333 208.971556,82.4346667 207.339556,83.976 C206.976889,84.3386667 206.614222,84.3386667 206.251556,83.976 C205.888889,83.6133333 205.888889,83.2506667 206.251556,82.888 C209.152889,79.4426667 211.804889,76.8133333 214.207556,75 C216.610222,73.1866667 219.080889,72.28 221.619556,72.28 C224.158222,72.28 225.926222,73.3 226.923556,75.34 C227.920889,77.38 227.875556,80.8026667 226.787556,85.608 L222.571556,107.232 C221.574222,111.856 221.460889,115.278667 222.231556,117.5 C223.002222,119.721333 224.475556,120.832 226.651556,120.832 C229.371556,120.832 232.204889,119.064 235.151556,115.528 C238.098222,111.992 240.863556,106.801333 243.447556,99.956 C246.031556,93.1106667 248.184889,84.7466667 249.907556,74.864 L252.083556,75 C250.270222,85.6986667 247.776889,95.0146667 244.603556,102.948 C241.430222,110.881333 237.803556,117.001333 233.723556,121.308 C229.643556,125.614667 225.291556,127.768 220.667556,127.768 Z M248.003556,127.224 C245.374222,127.224 243.674222,126.226667 242.903556,124.232 C242.132889,122.237333 242.110222,119.2 242.835556,115.12 L249.907556,74.864 C250.270222,73.232 252.400889,72.416 256.299556,72.416 C257.931556,72.416 259.019556,72.5293333 259.563556,72.756 C260.107556,72.9826667 260.379556,73.1866667 260.379556,73.368 C260.379556,73.7306667 260.152889,74.932 259.699556,76.972 C259.246222,79.012 258.792889,81.2106667 258.339556,83.568 L252.763556,113.896 C251.947556,118.610667 252.672889,120.968 254.939556,120.968 C255.846222,120.968 257.024889,120.492 258.475556,119.54 C259.926222,118.588 261.512889,117.16 263.235556,115.256 C263.507556,114.893333 263.847556,114.916 264.255556,115.324 C264.663556,115.732 264.686222,116.117333 264.323556,116.48 C261.150222,120.288 258.294222,123.030667 255.755556,124.708 C253.216889,126.385333 250.632889,127.224 248.003556,127.224 Z" id="Shape"></path>
        </g>
    </g>
</svg>